# xmcd CD database file
#
# Track frame offsets:
#	150
#	41105
#	58772
#	115450
#	142295
#	181785
#	206152
#	226880
#
# Disc length: 3318 seconds
#
# Revision: 0
# Processed by: cddbd v1.5PL3 Copyright (c) Steve Scherf et al.
# Submitted via: CDex 1.51
#
DISCID=7a0cf408
DTITLE=Nature inside - Chant of the Ocean
DYEAR=1900
DGENRE=New Age
TTITLE0=Waves on the Seashore
TTITLE1=Chant of the Ocean
TTITLE2=Sailor Dream
TTITLE3=Song of the Deep Blue
TTITLE4=White Shell
TTITLE5=Sea Breeze
TTITLE6=Golden Beach
TTITLE7=Westerly Wind
EXTD=
EXTT0=
EXTT1=
EXTT2=
EXTT3=
EXTT4=
EXTT5=
EXTT6=
EXTT7=
PLAYORDER=
